<?xml version="1.0" encoding="utf-8"?>
<!-- Svg Vector Icons : http://www.onlinewebfonts.com/icon -->
<!DOCTYPE svg PUBLIC "-//W3C//DTD SVG 1.1//EN" "http://www.w3.org/Graphics/SVG/1.1/DTD/svg11.dtd">
<svg version="1.1" xmlns="http://www.w3.org/2000/svg" xmlns:xlink="http://www.w3.org/1999/xlink" x="0px" y="0px" viewBox="0 0 1000 1000" enable-background="new 0 0 1000 1000" xml:space="preserve">
<metadata> Svg Vector Icons : http://www.onlinewebfonts.com/icon </metadata>
<g><g transform="translate(0.000000,504.000000) scale(0.100000,-0.100000)"><path d="M6953.5,4903.9c-436.7-66.3-926-298.3-1378.3-647.2C4294.4,3264.4,3206.6,1164.8,3077.9-562.5c-11.7-156-27.3-298.3-35.1-317.8c-13.7-40.9-1136.6-1212.6-1202.8-1253.5c-42.9-29.2-50.7-27.3-134.5,39c-134.5,101.4-261.2,138.4-467.9,136.5c-196.9-3.9-341.2-42.9-565.4-159.8c-167.7-85.8-411.3-321.7-473.7-458.1C-17.9-3044.1,134.2-3601.7,537.7-3822c113.1-60.4,296.3-113.1,399.6-113.1h70.2l29.2-154c64.3-325.5,233.9-553.6,501-682.3c132.6-62.4,167.7-70.2,341.2-76c111.1-5.8,239.8,1.9,302.2,15.6c473.7,103.3,828.5,563.4,828.5,1072.2c0,195-39,343.1-124.8,471.8c-39,58.5-56.5,105.3-50.7,128.7c15.6,46.8,389.9,413.3,894.8,875.3l384.1,352.9l171.6,11.7c329.5,25.4,581,54.6,842.2,101.4c746.7,134.5,1577.1,430.8,2273.1,811c380.2,206.6,350.9,163.8,271,395.7c-81.9,239.8-107.2,389.9-107.2,645.3c0,532.2,193,1002,563.4,1374.4c401.6,399.6,865.6,577.1,1483.6,561.4l282.7-7.8l5.9,204.7c17.5,625.8-239.8,1249.6-746.7,1820.8C8513.1,4703.1,7739.1,5026.7,6953.5,4903.9z M7583.2,4601.7c255.4-40.9,532.2-156,789.6-329.5c296.3-200.8,631.6-540,844.1-851.9c198.8-292.4,341.2-664.8,370.4-968.9l15.6-161.8l-181.3-13.6c-582.9-40.9-1041-239.8-1446.5-625.8c-366.5-349-600.4-775.9-686.2-1257.4c-40.9-224.2-31.2-616,21.4-838.3c23.4-101.4,42.9-196.9,44.8-212.5c5.8-40.9-516.6-306.1-922.1-467.9c-705.7-282.7-1411.4-448.4-2058.7-481.5l-235.9-13.6l-11.7,132.6c-15.6,167.6-83.8,313.9-198.8,428.9c-109.2,109.2-300.2,202.7-448.4,218.3c-58.5,5.8-111.1,17.5-115,23.4c-3.9,5.9,0,113.1,9.7,235.9c64.3,811,329.5,1717.5,748.6,2553.8C4641.4,3005.1,5364.6,3855.1,6093.7,4284C6604.5,4584.2,7064.6,4681.7,7583.2,4601.7z M3534.1-1001.1c255.4-66.3,419.1-249.5,452.3-508.8c17.5-122.8,64.3-68.2-604.3-686.2c-783.7-721.3-846.1-797.4-848-1007.9c0-79.9,15.6-122.8,87.7-241.7c48.7-81.9,91.6-181.3,99.4-230c46.8-313.9-167.7-676.5-493.2-838.3c-97.5-46.8-136.5-54.6-278.8-54.6c-134.5,0-183.3,7.8-259.3,44.8c-118.9,60.4-251.5,191-308,310c-54.6,109.2-72.1,341.2-40.9,512.7c11.7,58.5,17.5,109.2,15.6,111.1c-2,3.9-78-9.7-169.6-25.3c-278.8-52.6-460.1-9.7-616,146.2c-195,196.9-249.5,477.6-136.5,707.7c74.1,152.1,280.7,341.2,473.7,438.6c138.4,68.2,165.7,74.1,308,74.1c165.7,0,202.7-13.7,401.6-157.9c101.4-74.1,251.5-60.4,393.8,35.1c107.2,70.2,1325.7,1321.7,1337.3,1372.4C3356.7-964.1,3395.7-964.1,3534.1-1001.1z"/><path d="M7058.7,4126.1c-370.4-81.9-795.4-306.1-1119-596.6l-113.1-101.4l42.9-44.8c23.4-25.3,48.7-46.8,56.5-46.8c5.8,0,64.3,44.8,126.7,99.4c169.6,142.3,465.9,337.3,641.4,417.2c415.2,193,871.4,204.7,1187.2,33.1l95.5-50.7l37,46.8c19.5,27.3,33.2,58.5,29.3,68.2c-9.7,35.1-232,132.6-382.1,169.6C7487.6,4161.2,7236.2,4163.1,7058.7,4126.1z"/></g></g>
</svg>