<?xml version="1.0" encoding="iso-8859-1"?>
<!-- Generator: Adobe Illustrator 19.0.0, SVG Export Plug-In . SVG Version: 6.00 Build 0)  -->
<svg version="1.1" id="Capa_1" xmlns="http://www.w3.org/2000/svg" xmlns:xlink="http://www.w3.org/1999/xlink" x="0px" y="0px"
	 viewBox="0 0 466 466" style="enable-background:new 0 0 466 466;" xml:space="preserve">
<g>
	<path d="M356.133,396.304c-1.172-11.082-2.358-22.448-3.551-33.871c-7.913-75.813-15.389-147.421-21.233-167.546
		c-2.874-9.884-9.579-14.728-14.967-18.621c-5.976-4.318-10.168-7.354-11.103-16.677c9.036-5.054,15.162-14.722,15.162-25.801
		c0-9.008-4.068-17.08-10.46-22.492c10.092-11.685,15.549-25.498,15.549-39.792c0-19.538-9.928-37.756-27.955-51.299
		C280.233,7.176,257.3,0,233.003,0c-24.304,0-47.238,7.176-64.579,20.206c-18.022,13.542-27.947,31.76-27.947,51.299
		c0,14.292,5.455,28.104,15.543,39.788c-6.399,5.412-10.471,13.486-10.471,22.496c0,11.075,6.126,20.741,15.163,25.796
		c-0.933,9.327-5.127,12.363-11.104,16.682c-5.388,3.893-12.093,8.737-14.968,18.624c-5.827,20.063-13.268,91.379-21.146,166.882
		c-1.215,11.645-2.424,23.236-3.618,34.531c-2.53,23.915-3.415,40.453,6.943,51.964C130.361,463.321,159.034,466,233.003,466
		c73.956,0,102.625-2.679,116.172-17.73C359.535,436.759,358.656,420.221,356.133,396.304z M175.065,147.325
		c-7.453,0-13.517-6.072-13.517-13.537c0-7.433,6.063-13.479,13.517-13.479h115.878c7.443,0,13.499,6.047,13.499,13.479
		c0,7.464-6.056,13.537-13.499,13.537H175.065z M156.477,71.504c0-19.035,13.285-35.859,33.479-45.862
		c1.51,3.606,5.073,6.146,9.22,6.146c5.519,0,10.008-4.482,10.008-9.992c0-1.016-0.155-1.997-0.438-2.922
		c4.611-1.121,9.413-1.93,14.365-2.396c0.706,4.824,4.866,8.544,9.89,8.544c5.016,0,9.17-3.721,9.874-8.545
		c4.952,0.465,9.755,1.273,14.366,2.393c-0.283,0.926-0.438,1.908-0.438,2.926c0,5.51,4.482,9.992,9.992,9.992
		c4.157,0,7.728-2.545,9.238-6.155c20.203,10.002,33.496,26.83,33.496,45.871c0,11.864-5.357,23.461-15.141,33.013
		c-1.132-0.132-2.281-0.208-3.447-0.208H175.065c-1.168,0-2.318,0.076-3.451,0.208C161.832,94.966,156.477,83.369,156.477,71.504z
		 M337.282,437.566C327.766,448.14,296.074,450,233.003,450c-63.082,0-94.778-1.86-104.292-12.434
		c-5.923-6.583-5.003-19.945-2.925-39.58c1.194-11.303,2.404-22.9,3.62-34.553c7.458-71.48,15.171-145.394,20.597-164.078
		c1.279-4.398,3.957-6.495,8.974-10.12c6.513-4.706,15.091-10.916,17.358-25.91h113.32c2.267,14.994,10.844,21.205,17.357,25.91
		c5.017,3.625,7.694,5.721,8.973,10.117c5.444,18.747,13.541,96.31,20.685,164.743c1.193,11.43,2.38,22.802,3.552,33.89
		C342.293,417.62,343.207,430.983,337.282,437.566z"/>
	<path d="M282.195,189.121h-99.297c-4.418,0-8,3.582-8,8s3.582,8,8,8h8.922c-0.723,10.751-1.874,27.793-3.235,47.938
		c-0.298,4.408,3.034,8.223,7.442,8.521c0.184,0.012,0.365,0.019,0.547,0.019c4.173,0,7.688-3.236,7.974-7.461
		c1.409-20.833,2.591-38.344,3.308-49.017h50.263c2.021,29.769,5.795,85.449,9.119,134.519c0.286,4.225,3.801,7.46,7.974,7.46
		c0.182,0,0.364-0.006,0.549-0.019c4.408-0.299,7.739-4.114,7.44-8.522c-3.283-48.471-7.007-103.411-9.045-133.438h8.039
		c4.418,0,8-3.582,8-8S286.613,189.121,282.195,189.121z"/>
	<path d="M195.078,275.617c-4.398-0.296-8.225,3.034-8.521,7.442c-3.82,56.467-8.342,123.211-10.078,148.823
		c-0.299,4.408,3.032,8.224,7.44,8.522c0.185,0.013,0.367,0.019,0.549,0.019c4.172,0,7.688-3.235,7.974-7.459
		c1.736-25.612,6.258-92.356,10.078-148.825C202.818,279.731,199.486,275.916,195.078,275.617z"/>
	<path d="M285.232,368.56c-0.298-4.408-4.114-7.729-8.521-7.442c-4.408,0.298-7.74,4.114-7.441,8.522
		c2.155,31.854,3.846,56.862,4.276,63.316c0.282,4.228,3.799,7.468,7.975,7.468c0.179,0,0.359-0.006,0.54-0.018
		c4.409-0.294,7.744-4.106,7.45-8.515C289.079,425.436,287.389,400.42,285.232,368.56z"/>
	<path d="M199.176,58.833c5.519,0,10.008-4.482,10.008-9.992c0-5.519-4.489-10.008-10.008-10.008c-5.51,0-9.992,4.489-9.992,10.008
		C189.184,54.351,193.666,58.833,199.176,58.833z"/>
	<path d="M266.797,58.833c5.519,0,10.008-4.482,10.008-9.992c0-5.519-4.489-10.008-10.008-10.008c-5.51,0-9.992,4.489-9.992,10.008
		C256.805,54.351,261.287,58.833,266.797,58.833z"/>
	<path d="M233.002,52.068c5.509,0,9.991-4.482,9.991-9.992c0-5.519-4.482-10.008-9.991-10.008c-5.519,0-10.008,4.489-10.008,10.008
		C222.994,47.585,227.483,52.068,233.002,52.068z"/>
</g>
<g>
</g>
<g>
</g>
<g>
</g>
<g>
</g>
<g>
</g>
<g>
</g>
<g>
</g>
<g>
</g>
<g>
</g>
<g>
</g>
<g>
</g>
<g>
</g>
<g>
</g>
<g>
</g>
<g>
</g>
</svg>
