<?xml version="1.0" encoding="utf-8"?>
<!-- Svg Vector Icons : http://www.onlinewebfonts.com/icon -->
<!DOCTYPE svg PUBLIC "-//W3C//DTD SVG 1.1//EN" "http://www.w3.org/Graphics/SVG/1.1/DTD/svg11.dtd">
<svg version="1.1" xmlns="http://www.w3.org/2000/svg" xmlns:xlink="http://www.w3.org/1999/xlink" x="0px" y="0px" viewBox="0 0 1000 1000" enable-background="new 0 0 1000 1000" xml:space="preserve">
<metadata> Svg Vector Icons : http://www.onlinewebfonts.com/icon </metadata>
<g><g transform="translate(0.000000,511.000000) scale(0.100000,-0.100000)"><path d="M3735.7,3488.5c-667.8-403-1226.9-746.8-1238.8-764.6c-19.8-23.7-25.7-156.1-25.7-488v-456.4l-1167.7-699.4C663.4,694.8,130,364.9,118.1,345.1c-19.8-39.5-25.7-2621.8-5.9-2675.2c17.8-45.4,2434.1-1655.7,2501.3-1665.5c41.5-5.9,294.4,138.3,1207.2,685.6c636.2,381.3,1167.7,693.5,1179.5,693.5c11.9,0,541.3-312.2,1175.6-691.5c634.2-381.3,1171.6-691.5,1195.3-691.5c49.4,0,2442,1424.5,2495.4,1485.8c31.6,37.5,33.6,134.3,33.6,1432.4c0,829.8-7.9,1404.7-17.8,1426.5c-11.8,19.8-545.3,349.7-1185.4,735l-1167.6,699.4v456.4c0,407-4,462.3-33.6,497.9c-57.3,65.2-2448,1485.8-2499.3,1485.8C4972.5,4217.6,4403.5,3889.6,3735.7,3488.5z M6037.4,3257.3c559.1-335.9,1015.5-612.5,1015.5-618.4c0-21.7-2017.2-1215.1-2052.8-1215.1c-35.6,0-2052.8,1193.3-2052.8,1215.1c0,15.8,2021.2,1223,2048.8,1225C5012,3863.9,5480.3,3591.3,6037.4,3257.3z M4842.1-24.3v-1149.9L3814.7-488.7L2787.3,195v1082.7v1082.7l1027.4-616.4l1027.4-616.4V-24.3z M7213,1200.6V40.8L6185.6-575.6L5158.2-1192V-32.3v1159.8l1023.4,616.4c561.1,337.8,1023.4,616.4,1027.4,616.4C7211,2362.3,7213,1840.8,7213,1200.6z M2487,17.1c2-4,207.5-142.3,456.4-308.2l454.4-302.3L3016.5-783l-381.3-191.7L1605.8-358.3C1038.8-18.4,576.5,262.1,576.5,268.1c0,5.9,422.8,262.8,942.4,574.9l942.4,563.1l9.9-691.5C2477.1,333.3,2485,19.1,2487,17.1z M9423.8,268.1c0-11.9-1961.9-1189.4-2021.2-1213.1c-37.5-13.8-94.8,11.9-333.9,156.1c-160,94.8-290.4,179.8-290.4,187.7s160,110.6,355.6,227.2c197.6,118.6,365.5,229.2,375.4,248.9c11.8,19.8,19.8,347.7,19.8,786.3V1412l948.3-567C8997.1,532.8,9423.8,274,9423.8,268.1z M2471.2-2395.2v-1149.9l-1027.4,685.6L416.4-2175.9v1082.7V-10.5L1443.8-627l1027.4-616.4V-2395.2z M9583.9-1170.3V-2330l-1027.4-616.4l-1027.4-616.4v1159.8v1159.8L8552.5-627C9113.7-289.1,9576-10.5,9579.9-10.5C9581.9-8.5,9583.9-530.1,9583.9-1170.3z M7213-2403.1v-1159.8l-1027.4,616.4L5158.2-2330v385.3v385.3l646.1,387.2L6448.4-785l383.3-229.2l381.3-229.2V-2403.1z M4273.1-1178.2l569-377.4v-387.3V-2330l-1027.4-616.4l-1027.4-616.4v1153.8v1155.8l450.5,225.2c247,124.5,452.5,227.2,458.4,227.2C3700.1-798.8,3960.9-968.8,4273.1-1178.2z"/></g></g>
</svg>